<?xml version="1.0" standalone="no"?>
<!DOCTYPE svg PUBLIC "-//W3C//DTD SVG 20010904//EN"
 "http://www.w3.org/TR/2001/REC-SVG-20010904/DTD/svg10.dtd">
<svg version="1.0" xmlns="http://www.w3.org/2000/svg"
 width="512.000000pt" height="512.000000pt" viewBox="0 0 512.000000 512.000000"
 preserveAspectRatio="xMidYMid meet">

<g transform="translate(0.000000,512.000000) scale(0.100000,-0.100000)"
fill="#000000" stroke="none">
<path d="M2370 5114 c-19 -2 -78 -9 -130 -15 -791 -90 -1522 -586 -1924 -1305
-146 -262 -252 -587 -297 -914 -20 -143 -18 -527 4 -670 90 -586 331 -1065
738 -1467 63 -62 155 -145 204 -185 641 -512 1494 -684 2290 -461 929 260
1646 1043 1819 1987 156 845 -103 1682 -705 2285 -399 398 -879 639 -1449 726
-100 15 -472 28 -550 19z m278 -981 c58 -43 67 -66 70 -183 4 -125 4 -125 101
-160 129 -47 271 -164 349 -286 64 -102 112 -259 112 -370 0 -56 -29 -115 -72
-146 -44 -31 -134 -33 -174 -2 -51 38 -65 67 -75 155 -17 160 -98 276 -237
342 -61 29 -76 32 -162 32 -86 0 -101 -3 -162 -32 -93 -44 -151 -100 -196
-191 -35 -72 -37 -81 -37 -171 0 -87 3 -102 32 -163 43 -91 101 -151 187 -194
64 -31 85 -36 194 -45 217 -17 348 -75 487 -214 131 -131 199 -277 212 -454
22 -312 -172 -616 -459 -721 -96 -35 -98 -38 -98 -144 0 -107 -20 -160 -71
-197 -45 -32 -134 -34 -175 -3 -60 44 -69 67 -72 184 -4 125 -4 125 -101 160
-129 47 -271 164 -349 286 -64 102 -112 259 -112 370 0 56 29 115 72 146 44
31 134 33 174 2 51 -38 65 -67 75 -155 18 -159 93 -270 227 -337 72 -35 81
-37 172 -37 91 0 100 2 172 37 91 45 147 103 191 196 29 61 32 76 32 162 0 86
-3 101 -32 162 -43 91 -101 151 -187 194 -64 31 -85 36 -194 45 -217 17 -348
75 -487 214 -44 44 -97 109 -118 145 -135 232 -126 528 22 752 85 128 210 230
343 278 96 35 98 38 98 144 1 126 31 187 110 219 28 12 111 0 138 -20z"/>
</g>
</svg>
