<?xml version="1.0" standalone="no"?>
<!DOCTYPE svg PUBLIC "-//W3C//DTD SVG 20010904//EN"
 "http://www.w3.org/TR/2001/REC-SVG-20010904/DTD/svg10.dtd">
<svg version="1.0" xmlns="http://www.w3.org/2000/svg"
 width="512.000000pt" height="512.000000pt" viewBox="0 0 512.000000 512.000000"
 preserveAspectRatio="xMidYMid meet">

<g transform="translate(0.000000,512.000000) scale(0.100000,-0.100000)"
fill="#000000" stroke="none">
<path d="M2315 5109 c-478 -49 -913 -220 -1302 -510 -126 -95 -398 -366 -491
-491 -247 -330 -406 -690 -476 -1072 -134 -724 32 -1430 476 -2024 93 -125
365 -396 491 -491 364 -272 768 -437 1232 -503 118 -17 511 -16 635 0 579 80
1097 337 1491 739 126 128 156 162 236 268 260 343 430 763 495 1220 17 118
17 512 0 630 -58 404 -200 787 -410 1100 -411 614 -1043 1012 -1777 1121 -123
18 -478 26 -600 13z m338 -933 c22 -11 50 -39 63 -62 l24 -41 0 -711 0 -712
440 -352 c330 -264 444 -360 457 -387 9 -20 17 -59 17 -88 0 -96 -78 -173
-177 -173 -27 0 -63 7 -80 15 -45 22 -967 764 -991 798 -21 28 -21 40 -24 819
l-2 790 22 39 c35 63 115 102 183 91 17 -2 47 -14 68 -26z"/>
</g>
</svg>
