<?xml version="1.0" standalone="no"?>
<!DOCTYPE svg PUBLIC "-//W3C//DTD SVG 20010904//EN"
 "http://www.w3.org/TR/2001/REC-SVG-20010904/DTD/svg10.dtd">
<svg version="1.0" xmlns="http://www.w3.org/2000/svg"
 width="512.000000pt" height="512.000000pt" viewBox="0 0 512.000000 512.000000"
 preserveAspectRatio="xMidYMid meet">

<g transform="translate(0.000000,512.000000) scale(0.100000,-0.100000)"
fill="#000000" stroke="none">
<path d="M2367 5105 c-457 -65 -855 -355 -1057 -768 -90 -184 -127 -331 -146
-580 -5 -66 -10 -84 -32 -109 -54 -60 -152 -45 -187 28 -15 32 -17 53 -11 133
14 204 65 411 142 580 40 86 44 139 14 182 -41 56 -103 55 -264 -5 -412 -155
-705 -502 -803 -949 -25 -114 -24 -369 1 -486 79 -368 301 -682 603 -855 l72
-41 1 -491 0 -491 23 -34 c13 -19 38 -39 57 -46 45 -15 3495 -18 3551 -3 19 6
46 22 60 36 l24 26 3 501 3 502 72 42 c647 377 823 1250 375 1855 -247 333
-618 520 -1028 517 -69 0 -145 -4 -170 -8 l-45 -7 -99 93 c-206 195 -454 323
-715 369 -125 22 -327 26 -444 9z m-1012 -2348 c25 -25 35 -45 40 -83 20 -152
111 -331 310 -608 60 -83 40 -172 -45 -197 -75 -23 -113 10 -254 219 -164 243
-265 508 -234 618 13 48 61 84 110 84 32 0 47 -7 73 -33z m1280 0 c24 -24 35
-46 40 -78 3 -24 5 -199 3 -389 -3 -388 -3 -386 -76 -417 -32 -13 -42 -14 -76
-2 -22 8 -49 27 -60 42 -20 27 -21 42 -24 375 -2 191 0 367 3 391 10 64 58
111 115 111 34 0 48 -6 75 -33z m1274 7 c17 -14 34 -40 39 -58 21 -73 -23
-236 -107 -404 -89 -176 -246 -399 -303 -428 -42 -22 -94 -10 -130 28 -41 44
-39 100 7 164 199 277 290 456 310 608 14 103 112 151 184 90z"/>
<path d="M763 914 c-56 -28 -63 -58 -63 -286 0 -229 11 -298 61 -385 60 -105
170 -191 284 -224 42 -12 280 -14 1520 -14 1403 0 1472 1 1523 18 163 57 280
181 317 338 21 92 21 467 0 509 -33 64 101 60 -1842 60 -1585 0 -1771 -2
-1800 -16z"/>
</g>
</svg>
